# MagicaVoxel @ Ephtracy

# group
g Simple Character

# material
mtllib Simple Character.mtl
usemtl palette

# normals
vn -1 0 0
vn 1 0 0
vn 0 0 1
vn 0 0 -1
vn 0 -1 0
vn 0 1 0

# texcoords
vt 0.0332031 0.5
vt 0.162109 0.5
vt 0.306641 0.5
vt 0.373047 0.5
vt 0.658203 0.5
vt 0.833984 0.5

# verts
v -7.5 12 0.5
v -7.5 12 -0.5
v -7.5 13 0.5
v -7.5 13 -0.5
v -4.5 16 -0.5
v -4.5 16 -1.5
v -4.5 18 -0.5
v -4.5 18 -1.5
v -3.5 14 2.5
v -3.5 14 -2.5
v -3.5 16 -0.5
v -3.5 16 -1.5
v -3.5 18 2.5
v -3.5 18 1.5
v -3.5 18 -0.5
v -3.5 18 -1.5
v -3.5 19 2.5
v -3.5 19 1.5
v -3.5 20 2.5
v -3.5 20 -2.5
v -2.5 2 1.5
v -2.5 2 -0.5
v -2.5 3 1.5
v -2.5 3 0.5
v -2.5 3 -0.5
v -2.5 7 1.5
v -2.5 7 0.5
v -2.5 7 -0.5
v -2.5 7 -1.5
v -2.5 8 1.5
v -2.5 8 -1.5
v -2.5 12 0.5
v -2.5 12 -0.5
v -2.5 13 1.5
v -2.5 13 0.5
v -2.5 13 -0.5
v -2.5 13 -1.5
v -0.5 13 0.5
v -0.5 13 -0.5
v -0.5 14 0.5
v -0.5 14 -0.5
v -0.5 16 3.5
v -0.5 16 2.5
v -0.5 17 3.5
v -0.5 17 2.5
v 1.5 2 1.5
v 1.5 2 -0.5
v 1.5 3 1.5
v 1.5 3 0.5
v 1.5 3 -0.5
v 1.5 7 0.5
v 1.5 7 -0.5
v -1.5 2 1.5
v -1.5 2 -0.5
v -1.5 3 1.5
v -1.5 3 0.5
v -1.5 3 -0.5
v -1.5 7 0.5
v -1.5 7 -0.5
v 0.5 13 0.5
v 0.5 13 -0.5
v 0.5 14 0.5
v 0.5 14 -0.5
v 0.5 16 3.5
v 0.5 16 2.5
v 0.5 17 3.5
v 0.5 17 2.5
v 2.5 2 1.5
v 2.5 2 -0.5
v 2.5 3 1.5
v 2.5 3 0.5
v 2.5 3 -0.5
v 2.5 7 1.5
v 2.5 7 0.5
v 2.5 7 -0.5
v 2.5 7 -1.5
v 2.5 8 1.5
v 2.5 8 -1.5
v 2.5 12 0.5
v 2.5 12 -0.5
v 2.5 13 1.5
v 2.5 13 0.5
v 2.5 13 -0.5
v 2.5 13 -1.5
v 3.5 14 2.5
v 3.5 14 -2.5
v 3.5 16 -0.5
v 3.5 16 -1.5
v 3.5 18 2.5
v 3.5 18 1.5
v 3.5 18 -0.5
v 3.5 18 -1.5
v 3.5 19 2.5
v 3.5 19 1.5
v 3.5 20 2.5
v 3.5 20 -2.5
v 4.5 16 -0.5
v 4.5 16 -1.5
v 4.5 18 -0.5
v 4.5 18 -1.5
v 7.5 12 0.5
v 7.5 12 -0.5
v 7.5 13 0.5
v 7.5 13 -0.5
v -0.5 16 3.5
v -0.5 17 3.5
v 0.5 16 3.5
v 0.5 17 3.5
v -3.5 14 2.5
v -3.5 18 2.5
v -3.5 19 2.5
v -3.5 20 2.5
v -2.5 16 2.5
v -2.5 18 2.5
v -1.5 16 2.5
v -1.5 18 2.5
v -1.5 19 2.5
v -0.5 16 2.5
v -0.5 17 2.5
v 0.5 16 2.5
v 0.5 17 2.5
v 1.5 16 2.5
v 1.5 18 2.5
v 1.5 19 2.5
v 2.5 16 2.5
v 2.5 18 2.5
v 3.5 14 2.5
v 3.5 18 2.5
v 3.5 19 2.5
v 3.5 20 2.5
v -2.5 2 1.5
v -2.5 3 1.5
v -2.5 7 1.5
v -2.5 8 1.5
v -2.5 13 1.5
v -1.5 2 1.5
v -1.5 3 1.5
v 1.5 2 1.5
v 1.5 3 1.5
v 2.5 2 1.5
v 2.5 3 1.5
v 2.5 7 1.5
v 2.5 8 1.5
v 2.5 13 1.5
v -7.5 12 0.5
v -7.5 13 0.5
v -6.5 12 0.5
v -6.5 13 0.5
v -2.5 3 0.5
v -2.5 7 0.5
v -2.5 12 0.5
v -2.5 13 0.5
v -1.5 3 0.5
v -1.5 7 0.5
v -0.5 13 0.5
v -0.5 14 0.5
v 0.5 13 0.5
v 0.5 14 0.5
v 1.5 3 0.5
v 1.5 7 0.5
v 2.5 3 0.5
v 2.5 7 0.5
v 2.5 12 0.5
v 2.5 13 0.5
v 6.5 12 0.5
v 6.5 13 0.5
v 7.5 12 0.5
v 7.5 13 0.5
v -4.5 16 -0.5
v -4.5 18 -0.5
v -3.5 16 -0.5
v -3.5 18 -0.5
v 3.5 16 -0.5
v 3.5 18 -0.5
v 4.5 16 -0.5
v 4.5 18 -0.5
v -7.5 12 -0.5
v -7.5 13 -0.5
v -6.5 12 -0.5
v -6.5 13 -0.5
v -2.5 2 -0.5
v -2.5 3 -0.5
v -2.5 7 -0.5
v -2.5 12 -0.5
v -2.5 13 -0.5
v -1.5 2 -0.5
v -1.5 3 -0.5
v -1.5 7 -0.5
v -0.5 13 -0.5
v -0.5 14 -0.5
v 0.5 13 -0.5
v 0.5 14 -0.5
v 1.5 2 -0.5
v 1.5 3 -0.5
v 1.5 7 -0.5
v 2.5 2 -0.5
v 2.5 3 -0.5
v 2.5 7 -0.5
v 2.5 12 -0.5
v 2.5 13 -0.5
v 6.5 12 -0.5
v 6.5 13 -0.5
v 7.5 12 -0.5
v 7.5 13 -0.5
v -4.5 16 -1.5
v -4.5 18 -1.5
v -3.5 16 -1.5
v -3.5 18 -1.5
v -2.5 7 -1.5
v -2.5 8 -1.5
v -2.5 13 -1.5
v 2.5 7 -1.5
v 2.5 8 -1.5
v 2.5 13 -1.5
v 3.5 16 -1.5
v 3.5 18 -1.5
v 4.5 16 -1.5
v 4.5 18 -1.5
v -3.5 14 -2.5
v -3.5 20 -2.5
v 3.5 14 -2.5
v 3.5 20 -2.5
v -2.5 2 1.5
v -1.5 2 1.5
v 1.5 2 1.5
v 2.5 2 1.5
v -2.5 2 -0.5
v -1.5 2 -0.5
v 1.5 2 -0.5
v 2.5 2 -0.5
v -2.5 7 1.5
v 2.5 7 1.5
v -2.5 7 0.5
v -1.5 7 0.5
v 1.5 7 0.5
v 2.5 7 0.5
v -2.5 7 -0.5
v -1.5 7 -0.5
v 1.5 7 -0.5
v 2.5 7 -0.5
v -2.5 7 -1.5
v 2.5 7 -1.5
v -7.5 12 0.5
v -6.5 12 0.5
v -2.5 12 0.5
v 2.5 12 0.5
v 6.5 12 0.5
v 7.5 12 0.5
v -7.5 12 -0.5
v -6.5 12 -0.5
v -2.5 12 -0.5
v 2.5 12 -0.5
v 6.5 12 -0.5
v 7.5 12 -0.5
v -3.5 14 2.5
v 3.5 14 2.5
v -0.5 14 0.5
v 0.5 14 0.5
v -0.5 14 -0.5
v 0.5 14 -0.5
v -3.5 14 -2.5
v 3.5 14 -2.5
v -0.5 16 3.5
v 0.5 16 3.5
v -0.5 16 2.5
v 0.5 16 2.5
v -4.5 16 -0.5
v -3.5 16 -0.5
v 3.5 16 -0.5
v 4.5 16 -0.5
v -4.5 16 -1.5
v -3.5 16 -1.5
v 3.5 16 -1.5
v 4.5 16 -1.5
v -2.5 3 1.5
v -1.5 3 1.5
v 1.5 3 1.5
v 2.5 3 1.5
v -2.5 3 0.5
v -1.5 3 0.5
v 1.5 3 0.5
v 2.5 3 0.5
v -2.5 13 1.5
v 2.5 13 1.5
v -7.5 13 0.5
v -6.5 13 0.5
v -2.5 13 0.5
v -0.5 13 0.5
v 0.5 13 0.5
v 2.5 13 0.5
v 6.5 13 0.5
v 7.5 13 0.5
v -7.5 13 -0.5
v -6.5 13 -0.5
v -2.5 13 -0.5
v -0.5 13 -0.5
v 0.5 13 -0.5
v 2.5 13 -0.5
v 6.5 13 -0.5
v 7.5 13 -0.5
v -2.5 13 -1.5
v 2.5 13 -1.5
v -0.5 17 3.5
v 0.5 17 3.5
v -0.5 17 2.5
v 0.5 17 2.5
v -4.5 18 -0.5
v -3.5 18 -0.5
v 3.5 18 -0.5
v 4.5 18 -0.5
v -4.5 18 -1.5
v -3.5 18 -1.5
v 3.5 18 -1.5
v 4.5 18 -1.5
v -3.5 20 2.5
v 3.5 20 2.5
v -3.5 20 -2.5
v 3.5 20 -2.5

# faces
f 3/1/1 2/1/1 1/1/1
f 4/1/1 2/1/1 3/1/1
f 7/1/1 6/1/1 5/1/1
f 8/1/1 6/1/1 7/1/1
f 11/1/1 10/1/1 9/1/1
f 12/1/1 10/1/1 11/1/1
f 13/1/1 11/1/1 9/1/1
f 14/1/1 11/1/1 13/1/1
f 15/1/1 11/1/1 14/1/1
f 16/1/1 10/1/1 12/1/1
f 17/4/1 14/4/1 13/4/1
f 18/1/1 15/1/1 14/1/1
f 18/4/1 14/4/1 17/4/1
f 18/1/1 16/1/1 15/1/1
f 19/1/1 18/1/1 17/1/1
f 20/1/1 10/1/1 16/1/1
f 20/1/1 18/1/1 19/1/1
f 20/1/1 16/1/1 18/1/1
f 23/4/1 22/4/1 21/4/1
f 24/4/1 22/4/1 23/4/1
f 25/4/1 22/4/1 24/4/1
f 27/6/1 25/6/1 24/6/1
f 28/6/1 25/6/1 27/6/1
f 30/6/1 28/6/1 27/6/1
f 30/6/1 29/6/1 28/6/1
f 30/6/1 27/6/1 26/6/1
f 31/6/1 29/6/1 30/6/1
f 32/2/1 31/2/1 30/2/1
f 33/2/1 31/2/1 32/2/1
f 34/2/1 32/2/1 30/2/1
f 35/2/1 32/2/1 34/2/1
f 36/2/1 31/2/1 33/2/1
f 37/2/1 31/2/1 36/2/1
f 40/1/1 39/1/1 38/1/1
f 41/1/1 39/1/1 40/1/1
f 44/1/1 43/1/1 42/1/1
f 45/1/1 43/1/1 44/1/1
f 48/4/1 47/4/1 46/4/1
f 49/4/1 47/4/1 48/4/1
f 50/4/1 47/4/1 49/4/1
f 51/6/1 50/6/1 49/6/1
f 52/6/1 50/6/1 51/6/1
f 53/4/2 54/4/2 55/4/2
f 55/4/2 54/4/2 56/4/2
f 56/4/2 54/4/2 57/4/2
f 56/6/2 57/6/2 58/6/2
f 58/6/2 57/6/2 59/6/2
f 60/1/2 61/1/2 62/1/2
f 62/1/2 61/1/2 63/1/2
f 64/1/2 65/1/2 66/1/2
f 66/1/2 65/1/2 67/1/2
f 68/4/2 69/4/2 70/4/2
f 70/4/2 69/4/2 71/4/2
f 71/4/2 69/4/2 72/4/2
f 71/6/2 72/6/2 74/6/2
f 74/6/2 72/6/2 75/6/2
f 74/6/2 75/6/2 77/6/2
f 75/6/2 76/6/2 77/6/2
f 73/6/2 74/6/2 77/6/2
f 77/6/2 76/6/2 78/6/2
f 77/2/2 78/2/2 79/2/2
f 79/2/2 78/2/2 80/2/2
f 77/2/2 79/2/2 81/2/2
f 81/2/2 79/2/2 82/2/2
f 80/2/2 78/2/2 83/2/2
f 83/2/2 78/2/2 84/2/2
f 85/1/2 86/1/2 87/1/2
f 87/1/2 86/1/2 88/1/2
f 85/1/2 87/1/2 89/1/2
f 89/1/2 87/1/2 90/1/2
f 90/1/2 87/1/2 91/1/2
f 88/1/2 86/1/2 92/1/2
f 89/4/2 90/4/2 93/4/2
f 90/1/2 91/1/2 94/1/2
f 93/4/2 90/4/2 94/4/2
f 91/1/2 92/1/2 94/1/2
f 93/1/2 94/1/2 95/1/2
f 92/1/2 86/1/2 96/1/2
f 95/1/2 94/1/2 96/1/2
f 94/1/2 92/1/2 96/1/2
f 97/1/2 98/1/2 99/1/2
f 99/1/2 98/1/2 100/1/2
f 101/1/2 102/1/2 103/1/2
f 103/1/2 102/1/2 104/1/2
f 107/1/3 106/1/3 105/1/3
f 108/1/3 106/1/3 107/1/3
f 113/1/3 110/1/3 109/1/3
f 114/4/3 111/4/3 110/4/3
f 114/1/3 110/1/3 113/1/3
f 115/1/3 113/1/3 109/1/3
f 115/5/3 114/5/3 113/5/3
f 116/4/3 111/4/3 114/4/3
f 116/5/3 114/5/3 115/5/3
f 117/1/3 112/1/3 111/1/3
f 117/4/3 111/4/3 116/4/3
f 118/1/3 116/1/3 115/1/3
f 118/1/3 115/1/3 109/1/3
f 118/1/3 117/1/3 116/1/3
f 119/1/3 117/1/3 118/1/3
f 120/1/3 118/1/3 109/1/3
f 121/1/3 117/1/3 119/1/3
f 122/1/3 120/1/3 109/1/3
f 122/1/3 121/1/3 120/1/3
f 123/1/3 117/1/3 121/1/3
f 123/1/3 121/1/3 122/1/3
f 124/1/3 112/1/3 117/1/3
f 124/1/3 117/1/3 123/1/3
f 125/5/3 123/5/3 122/5/3
f 125/1/3 122/1/3 109/1/3
f 126/4/3 124/4/3 123/4/3
f 126/5/3 123/5/3 125/5/3
f 127/1/3 125/1/3 109/1/3
f 127/1/3 126/1/3 125/1/3
f 128/4/3 124/4/3 126/4/3
f 128/1/3 126/1/3 127/1/3
f 129/1/3 112/1/3 124/1/3
f 129/4/3 124/4/3 128/4/3
f 130/1/3 112/1/3 129/1/3
f 136/4/3 132/4/3 131/4/3
f 137/4/3 132/4/3 136/4/3
f 140/4/3 139/4/3 138/4/3
f 141/4/3 139/4/3 140/4/3
f 142/6/3 134/6/3 133/6/3
f 143/2/3 135/2/3 134/2/3
f 143/6/3 134/6/3 142/6/3
f 144/2/3 135/2/3 143/2/3
f 147/1/3 146/1/3 145/1/3
f 148/1/3 146/1/3 147/1/3
f 151/2/3 148/2/3 147/2/3
f 152/2/3 148/2/3 151/2/3
f 153/6/3 150/6/3 149/6/3
f 154/6/3 150/6/3 153/6/3
f 157/1/3 156/1/3 155/1/3
f 158/1/3 156/1/3 157/1/3
f 161/6/3 160/6/3 159/6/3
f 162/6/3 160/6/3 161/6/3
f 165/2/3 164/2/3 163/2/3
f 166/2/3 164/2/3 165/2/3
f 167/1/3 166/1/3 165/1/3
f 168/1/3 166/1/3 167/1/3
f 171/1/3 170/1/3 169/1/3
f 172/1/3 170/1/3 171/1/3
f 175/1/3 174/1/3 173/1/3
f 176/1/3 174/1/3 175/1/3
f 177/1/4 178/1/4 179/1/4
f 179/1/4 178/1/4 180/1/4
f 179/2/4 180/2/4 184/2/4
f 184/2/4 180/2/4 185/2/4
f 181/4/4 182/4/4 186/4/4
f 182/6/4 183/6/4 187/6/4
f 186/4/4 182/4/4 187/4/4
f 187/6/4 183/6/4 188/6/4
f 189/1/4 190/1/4 191/1/4
f 191/1/4 190/1/4 192/1/4
f 193/4/4 194/4/4 196/4/4
f 194/6/4 195/6/4 197/6/4
f 196/4/4 194/4/4 197/4/4
f 197/6/4 195/6/4 198/6/4
f 199/2/4 200/2/4 201/2/4
f 201/2/4 200/2/4 202/2/4
f 201/1/4 202/1/4 203/1/4
f 203/1/4 202/1/4 204/1/4
f 205/1/4 206/1/4 207/1/4
f 207/1/4 206/1/4 208/1/4
f 209/6/4 210/6/4 212/6/4
f 210/2/4 211/2/4 213/2/4
f 212/6/4 210/6/4 213/6/4
f 213/2/4 211/2/4 214/2/4
f 215/1/4 216/1/4 217/1/4
f 217/1/4 216/1/4 218/1/4
f 219/1/4 220/1/4 221/1/4
f 221/1/4 220/1/4 222/1/4
f 227/4/5 224/4/5 223/4/5
f 228/4/5 224/4/5 227/4/5
f 229/4/5 226/4/5 225/4/5
f 230/4/5 226/4/5 229/4/5
f 233/6/5 232/6/5 231/6/5
f 234/6/5 232/6/5 233/6/5
f 235/6/5 232/6/5 234/6/5
f 236/6/5 232/6/5 235/6/5
f 238/6/5 235/6/5 234/6/5
f 239/6/5 235/6/5 238/6/5
f 241/6/5 238/6/5 237/6/5
f 241/6/5 240/6/5 239/6/5
f 241/6/5 239/6/5 238/6/5
f 242/6/5 240/6/5 241/6/5
f 249/1/5 244/1/5 243/1/5
f 250/2/5 245/2/5 244/2/5
f 250/1/5 244/1/5 249/1/5
f 251/2/5 245/2/5 250/2/5
f 252/2/5 247/2/5 246/2/5
f 253/1/5 248/1/5 247/1/5
f 253/2/5 247/2/5 252/2/5
f 254/1/5 248/1/5 253/1/5
f 257/1/5 256/1/5 255/1/5
f 258/1/5 256/1/5 257/1/5
f 259/1/5 257/1/5 255/1/5
f 260/1/5 256/1/5 258/1/5
f 261/1/5 259/1/5 255/1/5
f 261/1/5 260/1/5 259/1/5
f 262/1/5 256/1/5 260/1/5
f 262/1/5 260/1/5 261/1/5
f 265/1/5 264/1/5 263/1/5
f 266/1/5 264/1/5 265/1/5
f 271/1/5 268/1/5 267/1/5
f 272/1/5 268/1/5 271/1/5
f 273/1/5 270/1/5 269/1/5
f 274/1/5 270/1/5 273/1/5
f 275/4/6 276/4/6 279/4/6
f 279/4/6 276/4/6 280/4/6
f 277/4/6 278/4/6 281/4/6
f 281/4/6 278/4/6 282/4/6
f 283/2/6 284/2/6 287/2/6
f 287/2/6 284/2/6 288/2/6
f 288/2/6 284/2/6 289/2/6
f 289/2/6 284/2/6 290/2/6
f 285/1/6 286/1/6 293/1/6
f 286/2/6 287/2/6 294/2/6
f 293/1/6 286/1/6 294/1/6
f 287/2/6 288/2/6 294/2/6
f 294/2/6 288/2/6 295/2/6
f 295/2/6 288/2/6 296/2/6
f 289/2/6 290/2/6 297/2/6
f 290/2/6 291/2/6 297/2/6
f 297/2/6 291/2/6 298/2/6
f 291/1/6 292/1/6 299/1/6
f 298/2/6 291/2/6 299/2/6
f 299/1/6 292/1/6 300/1/6
f 297/2/6 298/2/6 301/2/6
f 295/2/6 296/2/6 301/2/6
f 296/2/6 297/2/6 301/2/6
f 301/2/6 298/2/6 302/2/6
f 303/1/6 304/1/6 305/1/6
f 305/1/6 304/1/6 306/1/6
f 307/1/6 308/1/6 311/1/6
f 311/1/6 308/1/6 312/1/6
f 309/1/6 310/1/6 313/1/6
f 313/1/6 310/1/6 314/1/6
f 315/1/6 316/1/6 317/1/6
f 317/1/6 316/1/6 318/1/6
